<?xml version="1.0" encoding="utf-8"?>
<!-- Generator: Adobe Illustrator 19.0.0, SVG Export Plug-In . SVG Version: 6.00 Build 0)  -->
<svg version="1.1" id="Capa_1" xmlns="http://www.w3.org/2000/svg" xmlns:xlink="http://www.w3.org/1999/xlink" x="0px" y="0px"
	 viewBox="-456 257 47 47" style="enable-background:new -456 257 47 47;" xml:space="preserve">
<style type="text/css">
	.st0{fill:#E8E8E8;}
</style>
<g>
	<g id="Layer_1_5_">
		<g>
			<path class="st0" d="M-438.4,272.9l-2.9-2.7c0.3-0.6,0.5-1.3,0.5-2c0-2.3-1.9-4.2-4.2-4.2c-2.3,0-4.2,1.9-4.2,4.2
				s1.9,4.2,4.2,4.2c0.8,0,1.6-0.2,2.2-0.7l2.9,2.7C-439.5,273.9-439,273.4-438.4,272.9z"/>
			<path class="st0" d="M-426.3,272.6l3.8-6.4c0.4,0.1,0.8,0.2,1.2,0.2c2.3,0,4.2-1.9,4.2-4.2c0-2.3-1.9-4.2-4.2-4.2
				c-2.3,0-4.2,1.9-4.2,4.2c0,1.2,0.5,2.2,1.2,3l-3.8,6.4C-427.5,271.8-426.9,272.2-426.3,272.6z"/>
			<path class="st0" d="M-413.2,278c-1.8,0-3.4,1.2-4,2.8l-5.3-0.5c0,0,0,0.1,0,0.1c0,0.7-0.1,1.4-0.2,2l5.3,0.5
				c0.3,2,2.1,3.6,4.2,3.6c2.3,0,4.2-1.9,4.2-4.2C-409,279.9-410.9,278-413.2,278z"/>
			<path class="st0" d="M-427.8,294.6l-1.2-5.2c-0.7,0.2-1.4,0.4-2.1,0.5l1.2,5.2c-1.4,0.7-2.3,2.1-2.3,3.7c0,2.3,1.9,4.2,4.2,4.2
				c2.3,0,4.2-1.9,4.2-4.2C-423.7,296.6-425.5,294.7-427.8,294.6z"/>
			<path class="st0" d="M-441.6,282.4l-6.6,2.2c-0.8-1.2-2.1-1.9-3.5-1.9c-2.3,0-4.2,1.9-4.2,4.2c0,2.3,1.9,4.2,4.2,4.2
				c2.3,0,4.2-1.9,4.2-4.2c0-0.1,0-0.2,0-0.3l6.6-2.2C-441.3,283.8-441.5,283.1-441.6,282.4z"/>
			<circle class="st0" cx="-432.2" cy="280.3" r="7.3"/>
		</g>
	</g>
</g>
</svg>
