<?xml version="1.0" encoding="utf-8"?>
<!-- Generator: Adobe Illustrator 19.0.0, SVG Export Plug-In . SVG Version: 6.00 Build 0)  -->
<svg version="1.1" id="Capa_1" xmlns="http://www.w3.org/2000/svg" xmlns:xlink="http://www.w3.org/1999/xlink" x="0px" y="0px"
	 viewBox="-223 25 512 512" style="enable-background:new -223 25 512 512;" xml:space="preserve">
<style type="text/css">
	.st0{fill:#E8E8E8;}
</style>
<g>
	<path class="st0" d="M265.7,211.2h-35.2c-2.5-7-5.3-13.8-8.5-20.5l24.9-24.9c9.1-9.1,9.1-23.8,0-32.9l-65.8-65.8
		c-4.4-4.4-10.3-6.8-16.5-6.8s-12.1,2.5-16.5,6.8L123.3,92c-6.7-3.2-13.5-6-20.5-8.5V48.3c0-12.9-10.4-23.3-23.3-23.3h-93.1
		c-12.9,0-23.3,10.4-23.3,23.3v35.2c-7,2.5-13.8,5.3-20.5,8.5l-24.9-24.9c-9.1-9.1-23.8-9.1-32.9,0l-65.8,65.8
		c-9.1,9.1-9.1,23.8,0,32.9l24.9,24.9c-3.2,6.7-6,13.5-8.5,20.5h-35.2c-12.9,0-23.3,10.4-23.3,23.3v93.1c0,12.9,10.4,23.3,23.3,23.3
		h35.2c2.5,7,5.3,13.8,8.5,20.5l-24.9,24.9c-4.4,4.4-6.8,10.3-6.8,16.5c0,6.2,2.5,12.1,6.8,16.5l65.8,65.8c9.1,9.1,23.8,9.1,32.9,0
		l24.9-24.9c6.7,3.2,13.5,6,20.5,8.5v35.2c0,12.9,10.4,23.3,23.3,23.3h93.1c12.9,0,23.3-10.4,23.3-23.3v-35.2
		c7-2.5,13.8-5.3,20.5-8.5l24.9,24.9c9.1,9.1,23.8,9.1,32.9,0l65.8-65.8c9.1-9.1,9.1-23.8,0-32.9L222,371.3c3.2-6.7,6-13.5,8.5-20.5
		h35.2c12.9,0,23.3-10.4,23.3-23.3v-93.1C289,221.6,278.6,211.2,265.7,211.2z M242.5,304.3h-29.1c-10.6,0-19.9,7.2-22.5,17.5
		c-3.8,14.7-9.6,28.8-17.4,42c-5.4,9.1-3.9,20.8,3.6,28.3l20.6,20.6l-32.9,32.9L144,424.9c-7.5-7.5-19.1-9-28.3-3.6
		c-13.2,7.8-27.3,13.6-42,17.4c-10.3,2.6-17.5,11.9-17.5,22.5v29.1H9.7v-29.1c0-10.6-7.2-19.9-17.5-22.5c-14.7-3.8-28.8-9.6-42-17.4
		c-9.1-5.4-20.8-3.9-28.3,3.6l-20.6,20.6l-32.9-32.9l20.6-20.6c7.5-7.5,9-19.2,3.6-28.3c-7.8-13.2-13.6-27.3-17.4-42
		c-2.6-10.3-11.9-17.5-22.5-17.5h-29.1v-46.5h29.1c10.6,0,19.9-7.2,22.5-17.5c3.8-14.7,9.6-28.8,17.4-42c5.4-9.1,3.9-20.8-3.6-28.3
		l-20.6-20.6l32.9-32.9l20.6,20.6c7.5,7.5,19.2,9,28.3,3.6c13.2-7.8,27.3-13.6,42-17.4c10.3-2.6,17.5-11.9,17.5-22.5V71.5h46.5v29.1
		c0,10.6,7.2,19.9,17.5,22.5c14.7,3.8,28.8,9.6,42,17.4c9.1,5.4,20.8,3.9,28.3-3.6l20.6-20.6l32.9,32.9L176.9,170
		c-7.5,7.5-9,19.2-3.6,28.3c7.8,13.2,13.6,27.3,17.4,42c2.6,10.3,11.9,17.5,22.5,17.5h29.1V304.3z"/>
	<path class="st0" d="M66.2,230.4l-53.4,53.4l-14.6-14.6c-9.1-9.1-23.8-9.1-32.9,0s-9.1,23.8,0,32.9l31,31
		c4.5,4.5,10.5,6.8,16.5,6.8s11.9-2.3,16.5-6.8l69.8-69.8c9.1-9.1,9.1-23.8,0-32.9C90,221.3,75.3,221.3,66.2,230.4z"/>
</g>
</svg>
