<?xml version="1.0" encoding="utf-8"?>
<!-- Generator: Adobe Illustrator 19.0.0, SVG Export Plug-In . SVG Version: 6.00 Build 0)  -->
<svg version="1.1" id="Capa_1" xmlns="http://www.w3.org/2000/svg" xmlns:xlink="http://www.w3.org/1999/xlink" x="0px" y="0px"
	 viewBox="-236 38.8 485.2 485.2" style="enable-background:new -236 38.8 485.2 485.2;" xml:space="preserve">
<style type="text/css">
	.st0{fill:#E8E8E8;}
</style>
<g>
	<path class="st0" d="M249.2,402.7c0,10.6-3,20.5-7.8,29.2L88.2,260.5l151.5-132.6c5.9,9.4,9.4,20.3,9.4,32.2L249.2,402.7
		L249.2,402.7z M6.6,291.6l210.9-184.5c-8.7-4.7-18.4-7.6-28.9-7.6h-363.9c-10.5,0-20.3,2.9-28.9,7.6L6.6,291.6z M65.4,280.4
		l-48.8,42.7c-2.9,2.5-6.4,3.7-10,3.7c-3.6,0-7.1-1.2-10-3.7l-48.8-42.7L-207.3,454c9.3,5.8,20.2,9.3,32,9.3h363.9
		c11.8,0,22.7-3.5,32-9.3L65.4,280.4z M-226.6,127.9c-5.9,9.4-9.4,20.3-9.4,32.2v242.6c0,10.6,3,20.5,7.8,29.2L-75,260.4
		L-226.6,127.9z"/>
</g>
</svg>
