<?xml version="1.0" encoding="utf-8"?>
<!-- Generator: Adobe Illustrator 19.0.0, SVG Export Plug-In . SVG Version: 6.00 Build 0)  -->
<svg version="1.1" id="Layer_1" xmlns="http://www.w3.org/2000/svg" xmlns:xlink="http://www.w3.org/1999/xlink" x="0px" y="0px"
	 viewBox="-333 135.7 291.3 291.3" style="enable-background:new -333 135.7 291.3 291.3;" xml:space="preserve">
<style type="text/css">
	.st0{fill:#E8E8E8;}
</style>
<g>
	<path class="st0" d="M-187.3,135.7c-80.4,0-145.7,65.2-145.7,145.7c0,80.4,65.2,145.7,145.7,145.7s145.7-65.2,145.7-145.7
		C-41.7,200.9-106.9,135.7-187.3,135.7z M-146.5,392.3c-0.8-11.4-1.8-25.5-1.8-31.2c-0.4-4.4-0.8-15.5-11.4-22.7
		c42.1-3.5,62.1-26.8,63.5-57.5c1.2-17.5-5.8-32.9-18.1-45.3c0.6-13.3-0.4-29-1.3-35.9c-9.5-2.7-31.6,8.9-37.8,13.9
		c-13-5.1-44.9-6.8-64.3,0c-13.7-9.7-29.4-15.6-37.9-14c-7.9,17.5-2.8,33.9-1.3,35.9c-10.1,9.3-24.3,20.7-20.4,44.6
		c6.2,35,30.8,53.9,70.5,58.6c-8.5,1.7-9.9,8-10.6,10.8c-26.7,11-34.3-6.8-37.6-11.4c-11.2-13.8-21.2-9.8-21.8-9.6
		c-0.6,0.2-1.1,1.1-1,1.5c0.6,3,6.7,6,7,6.3c8.3,6.2,11.3,17.3,13.2,20.4c11.8,19.5,39.4,11.4,39.6,11.6c0,1.7-0.2,16-0.4,27.2
		c-50.2-13.7-87.1-59.5-87.1-114c0-65.4,53-118.3,118.3-118.3S-69,216-69,281.3C-69,332.3-101.3,375.7-146.5,392.3z"/>
</g>
</svg>
