<?xml version="1.0" encoding="utf-8"?>
<!-- Generator: Adobe Illustrator 19.0.0, SVG Export Plug-In . SVG Version: 6.00 Build 0)  -->
<svg version="1.1" id="Layer_1" xmlns="http://www.w3.org/2000/svg" xmlns:xlink="http://www.w3.org/1999/xlink" x="0px" y="0px"
	 viewBox="-390 192.8 177.2 177.2" style="enable-background:new -390 192.8 177.2 177.2;" xml:space="preserve">
<style type="text/css">
	.st0{display:none;}
	.st1{fill:#E8E8E8;}
</style>
<g id="_x38_MJ9tV.tif" class="st0">
	
		<image style="display:inline;overflow:visible;enable-background:new    ;" width="118" height="33" id="Layer_0" xlink:href="DF2C13354D5EFA8A.png"  transform="matrix(0.9915 0 0 0.9697 662.3047 907.8867)">
	</image>
</g>
<g id="VZchZG.tif" class="st0">
	
		<image style="display:inline;overflow:visible;enable-background:new    ;" width="32" height="32" id="Layer_0_1_" xlink:href="DF2C13354D5EFA8E.png"  transform="matrix(1 0 0 1 402 738.75)">
	</image>
</g>
<g id="jxJjd2.tif" class="st0">
	
		<image style="display:inline;overflow:visible;enable-background:new    ;" width="64" height="64" id="Layer_0_2_" xlink:href="DF2C13354D5EFA89.png"  transform="matrix(2.7695 0 0 2.7695 -303.2495 241.9995)">
	</image>
</g>
<path class="st1" d="M-230.8,192.8H-372c-9.9,0-18,8.1-18,18V352c0,9.9,8.1,18,18,18h141.2c9.9,0,18-8.1,18-18V210.8
	C-212.8,200.8-220.8,192.8-230.8,192.8z M-320.8,295.2h-8.2v-61h8.2V295.2z M-304.2,328.5h-8.2v-80.2h8.2V328.5z M-287.5,328.5h-8.2
	v-80.2h8.2V328.5z M-271,295.2h-8.2v-47h8.2V295.2z"/>
</svg>
