<?xml version="1.0" encoding="utf-8"?>
<!-- Generator: Adobe Illustrator 19.0.0, SVG Export Plug-In . SVG Version: 6.00 Build 0)  -->
<svg version="1.1" id="Layer_1" xmlns="http://www.w3.org/2000/svg" xmlns:xlink="http://www.w3.org/1999/xlink" x="0px" y="0px"
	 viewBox="-223 25 512 512" style="enable-background:new -223 25 512 512;" xml:space="preserve">
<style type="text/css">
	.st0{fill:#E8E8E8;}
</style>
<g>
	<path class="st0" d="M33,25c-140.5,0-256,115.5-256,256s115.5,256,256,256s256-115.5,256-256S173.5,25,33,25z M102.7,149.2
		c0-12,9.8-21.7,21.7-21.7c12,0,21.7,9.8,21.7,21.7c0.1,11.9-9.7,21.7-21.6,21.7c-1,0-1,0-2.2,0
		C111.5,169.9,102.7,161.2,102.7,149.2L102.7,149.2z M126.2,303.3c-3.2,11.5-15.3,18.3-26.9,15.2c-11.5-3.2-18.4-15.3-15.2-26.9
		s15.3-18.4,26.9-15.2C123.7,279.9,129.4,291.7,126.2,303.3z M118,62.9c0,15.3-0.1,29.9-0.8,44.4C96.6,110.9,81,128.9,81,150.3
		c0,19.4,11.8,35.7,29.4,41.5c-2.6,21.1-5.5,42.2-9.6,63.3c-10.6,1-20.3,5.9-27.5,13.5c-27-17-51.6-37-72.4-58.7
		c11.7-14.9,12.4-35.9,1.8-51.6c36.5-34,74.8-66,115-95.4C117.7,62.8,117.8,62.9,118,62.9L118,62.9z M33,46.7
		c20.4,0.1,40.1,2.7,59,7.7c-37.2,27.4-72.7,57.7-106,89.5c-11-5.4-23.8-6.1-35.2-1.7C-61.4,121.3-71,99-78.4,75.3
		C-45.2,57.1-7.2,46.7,33,46.7L33,46.7z M-17.7,198c-8.7,8.3-22.6,7.9-30.8-0.7c-8.3-8.7-7.8-22.6,0.8-30.8s22.6-7.9,30.8,0.7
		S-9,189.8-17.7,198z M-97.5,87c7.6,23.6,17.9,46.6,30.5,68.3c-11.5,13.9-13.1,33.4-4.5,48.9c-16.6,18.6-33,37.9-48.1,58.1
		c-9.5-2.9-19.6-2.5-28.7,1c-13.9-22.8-25.6-46.3-35-71.4C-165.6,149.2-135.4,112.7-97.5,87L-97.5,87z M-113.6,314.8
		c-6.5,10.1-20,13.1-30.1,6.6c-10.1-6.5-13.1-20.1-6.6-30.1c6.5-10.1,20-13.1,30.1-6.6S-107.1,304.6-113.6,314.8L-113.6,314.8z
		 M-201.2,280.9c0-19.4,2.4-38.5,7-56.6c7.9,17.9,17.3,35.3,27.8,52c-1,1.3-2,2.6-2.9,4c-9.9,15.5-8.7,35,1.5,49.1
		c-6.6,10.9-12.9,21.4-19,32.2C-196.1,336.4-201.2,309.2-201.2,280.9L-201.2,280.9z M12.8,514.3c-82.3-7-152.5-56.9-188.4-127
		c8.5-14.3,16.8-28.7,25.3-43.7c11.5,5.1,24.3,4.8,35.3,0c35.7,37.3,79.7,69.1,131.9,94.5c-1.7,14.2,3.9,28.5,14.6,37.9
		C25.7,489,19.3,502,12.8,514.3z M24.6,418.1c-48.2-23.2-89.2-53.2-122.6-87.9c0.7-0.9,1.4-1.9,2-2.8c11-17.1,8.4-39.3-5.1-53.5
		c14.1-18.2,28.9-35.7,44.5-53.9c12,7.4,27.1,8.5,39.9,3.1c23.2,24.1,49.7,45,79.5,63.4c0,0.1-0.1,0.2-0.1,0.2
		c-5.2,18.9,2.9,38.5,18.7,48.5c-6.3,21.3-12.9,43.3-20.2,64.5C47,399.4,33.1,406.2,24.6,418.1L24.6,418.1z M80.4,451.3
		c-5,10.9-18.1,15.7-28.9,10.7c-10.9-5-15.7-18.1-10.7-28.9c5-10.9,18.1-15.7,28.9-10.7C81.7,427.9,85.5,440.5,80.4,451.3z
		 M36.9,515.2c4.8-9.8,9.5-19.5,14-29.4c17,4,34.3-2.7,44.4-16.6c17.6,5.7,35.8,10.6,54.8,14.6C116.7,503.1,78,514.4,36.9,515.2z
		 M175.9,466.3c-25.6-4.6-49.8-10.7-72.5-17.6c2.1-16.8-5.7-33.9-20.7-42.8c7.8-20.6,14.2-41.9,19.7-63.8c15.2,1,29-5.9,37.5-17.6
		c35,13.5,73.8,23.7,115,30.8C240.2,399.6,212.3,438.2,175.9,466.3z M148.1,303.8c2.3-19-8.2-37.5-25.7-45.2
		c3.6-21.3,7-43.4,9.8-65.4c20.3-3.7,35.8-21.5,35.8-42.8c0-18.9-12.2-35.1-29.2-41.1c0.6-11.7,1.3-23.8,1.3-36.2
		c75.1,39.2,127,118,127,207.9c0,18.2-2.1,35.8-6.1,52.9C220.1,326.8,182.5,316.5,148.1,303.8L148.1,303.8z"/>
</g>
</svg>
