<?xml version="1.0" encoding="utf-8"?>
<!-- Generator: Adobe Illustrator 19.0.0, SVG Export Plug-In . SVG Version: 6.00 Build 0)  -->
<svg version="1.1" id="Layer_1" xmlns="http://www.w3.org/2000/svg" xmlns:xlink="http://www.w3.org/1999/xlink" x="0px" y="0px"
	 viewBox="-334 135.4 290.6 290.6" style="enable-background:new -334 135.4 290.6 290.6;" xml:space="preserve">
<style type="text/css">
	.st0{fill:#E8E8E8;}
	.st1{fill:#172C33;}
</style>
<g>
	<g>
		<circle class="st0" cx="-188.7" cy="280.7" r="107.8"/>
		<path class="st0" d="M-43.4,280.7c0-80.1-65.2-145.3-145.3-145.3c-24.9,0-48.3,6.3-68.8,17.4c-31.6-15.7-54.4-18-66-6.4
			c-12.6,12.6-7.8,37.4,6.6,66.1c-10.9,20.4-17.1,43.6-17.1,68.3c0,80.1,65.2,145.3,145.3,145.3c24.6,0,47.8-6.2,68.2-17
			c16.9,8.5,32.9,13.8,45.8,13.8c8.3,0,15.3-2.2,20.3-7.3c11.6-11.6,9.4-34.4-6.4-66C-49.7,329-43.4,305.6-43.4,280.7z M-316.9,153
			c7.7-7.7,25.6-5.6,49.7,5.5c-17.7,11.4-32.7,26.5-44,44.2C-322.5,178.1-324.2,160.3-316.9,153z M-188.7,416.6
			c-75,0-135.9-61-135.9-135.9c0-20.8,4.7-40.5,13.1-58.1c12.6,22.5,30.2,46.8,49.3,69l-16.5,3.3l1.8,9.2l25.9-5.2l10.3-25.8
			l-8.7-3.5l-6.2,15.4c-23.1-26.8-40-51.5-50.9-72.3c23.5-40.6,67.4-67.9,117.6-67.9c75,0,135.9,61,135.9,135.9
			c0,50.2-27.4,94.1-67.9,117.6c-15.1-8-32-18.8-49.5-32.3l-5.7,7.4c14.5,11.1,30.1,21.6,45.3,30.1
			C-148.3,411.9-167.9,416.6-188.7,416.6z M-61,408.9c-7.9,7.9-26.1,5.3-49.8-5.6c17.7-11.3,32.9-26.4,44.3-44
			C-55.4,383.3-53.3,401.2-61,408.9z"/>
		<path class="st1" d="M-141.8,313.5c0-20.7-16.8-37.5-37.5-37.5h-18.8c-15.5,0-28.1-12.6-28.1-28.1s12.6-28.1,28.1-28.1h18.8
			c15.5,0,28.1,12.6,28.1,28.1v4.7h9.4v-4.7c0-20.7-16.8-37.5-37.5-37.5h-4.7v-18.8h-9.4v18.8h-4.7c-20.7,0-37.5,16.8-37.5,37.5
			s16.8,37.5,37.5,37.5h18.8c15.5,0,28.1,12.6,28.1,28.1s-12.6,28.1-28.1,28.1h-18.8c-15.5,0-28.1-12.6-28.1-28.1v-4.7h-9.4v4.7
			c0,20.7,16.8,37.5,37.5,37.5h4.7v18.8h9.4V351h4.7C-158.6,351-141.8,334.2-141.8,313.5z"/>
	</g>
</g>
</svg>
