<?xml version="1.0" encoding="utf-8"?>
<!-- Generator: Adobe Illustrator 19.0.0, SVG Export Plug-In . SVG Version: 6.00 Build 0)  -->
<svg version="1.1" id="Capa_1" xmlns="http://www.w3.org/2000/svg" xmlns:xlink="http://www.w3.org/1999/xlink" x="0px" y="0px"
	 viewBox="-223 25 512 512" style="enable-background:new -223 25 512 512;" xml:space="preserve">
<style type="text/css">
	.st0{fill:#E8E8E8;}
</style>
<g>
	<path class="st0" d="M245.3,224.9h-30.4l-133-87c3.1-6.8,4.9-14.3,4.9-22.3C86.7,86,62.6,61.9,33,61.9S-20.7,86-20.7,115.6
		c0,7.9,1.7,15.5,4.9,22.3l-133,87h-30.4c-24.1,0-43.7,19.6-43.7,43.7v187.8c0,24.1,19.6,43.7,43.7,43.7l424.6,0
		c24.1,0,43.7-19.6,43.7-43.7V268.6C289,244.5,269.4,224.9,245.3,224.9z M33,84c17.4,0,31.6,14.2,31.6,31.6S50.4,147.2,33,147.2
		S1.4,133.1,1.4,115.6S15.6,84,33,84z M-2.7,155.6c9.5,8.5,22,13.7,35.7,13.7c13.7,0,26.2-5.2,35.7-13.7l105.9,69.2h-283.2
		L-2.7,155.6z M-179.3,246.9h424.6c11.9,0,21.6,9.7,21.6,21.6v2.1H-201v-2.1C-201,256.6-191.3,246.9-179.3,246.9z M245.3,478
		l-424.6,0c-11.9,0-21.6-9.7-21.6-21.6V292.7H267v163.7C267,468.3,257.3,478,245.3,478z"/>
	<path class="st0" d="M-115.5,317.1c-25.4,0-51.1,19.8-51.1,64c0,39.2,21.5,67.6,51.1,67.6s51.1-28.4,51.1-67.6
		C-64.4,336.9-90.1,317.1-115.5,317.1z M-115.5,426.7c-16.8,0-29.1-19.2-29.1-45.6c0-25.9,11.1-41.9,29.1-41.9
		c17.9,0,29.1,16.1,29.1,41.9C-86.5,407.5-98.7,426.7-115.5,426.7z"/>
	<path class="st0" d="M-34,317.1c-6.1,0-11,5-11,11v109.6c0,6.1,4.9,11,11,11s11-4.9,11-11v-22c10.3-0.4,20.2-1.8,29.1-6
		C22,402.1,30,387.6,30,366.5c0-16.8-4.1-29.1-12.6-37.4C4.9,316.6-18.9,316.4-34,317.1z M-23,339c10,0,19.9,0.7,24.9,5.7
		c4,3.9,6,11.3,6,21.7c0,20.4-9.3,25.9-30.9,27.1L-23,339L-23,339z"/>
	<path class="st0" d="M108,339.1c6.1,0,11-4.9,11-11s-4.9-11-11-11H59.1c-6.1,0-11,4.9-11,11v109.6c0,6.1,4.9,11,11,11H108
		c6.1,0,11-4.9,11-11s-4.9-11-11-11H70.1v-33.3H108c6.1,0,11-4.9,11-11s-4.9-11-11-11H70.1v-32.1H108z"/>
	<path class="st0" d="M213.4,317.1c-6.1,0-11,4.9-11,11V396l-41.7-73.3c-2.5-4.3-7.6-6.5-12.4-5.2c-4.8,1.3-8.2,5.7-8.2,10.7v109.6
		c0,6.1,4.9,11,11,11s11-4.9,11-11v-67.9l41.7,73.3c2,3.5,5.7,5.6,9.6,5.6c0.9,0,1.9-0.1,2.8-0.4c4.8-1.3,8.2-5.7,8.2-10.7V328.1
		C224.5,322,219.5,317.1,213.4,317.1z"/>
</g>
</svg>
