<?xml version="1.0" encoding="utf-8"?>
<!-- Generator: Adobe Illustrator 19.0.0, SVG Export Plug-In . SVG Version: 6.00 Build 0)  -->
<svg version="1.1" id="Layer_1" xmlns="http://www.w3.org/2000/svg" xmlns:xlink="http://www.w3.org/1999/xlink" x="0px" y="0px"
	 viewBox="0 0 196.6 169.7" style="enable-background:new 0 0 196.6 169.7;" xml:space="preserve">
<style type="text/css">
	.st0{clip-path:url(#SVGID_2_);}
	.st1{fill:#E7E9E9;}
</style>
<g>
	<defs>
		<rect id="SVGID_1_" x="0" y="-26.9" width="196.6" height="196.6"/>
	</defs>
	<clipPath id="SVGID_2_">
		<use xlink:href="#SVGID_1_"  style="overflow:visible;"/>
	</clipPath>
	<g class="st0">
		<path class="st1" d="M140.7,84.9l-21.2-21.2L98.3,42.4L77.1,21.2L55.9,0L34.7,21.2l21.2,21.2l21.2,21.2L55.9,84.9l-21.2,21.2
			l21.2,21.2l21.2,21.2l21.2,21.2l21.2-21.2l21.2-21.2l21.2-21.2L140.7,84.9z M98.3,127.3l-21.2-21.2l21.2-21.2l21.2,21.2
			L98.3,127.3z"/>
		<polygon class="st1" points="183.2,42.4 162,21.2 140.7,0 119.5,21.2 98.3,42.4 77.1,63.6 55.9,84.9 34.7,63.6 55.9,42.4 
			34.7,21.2 13.5,42.4 -7.7,63.6 13.5,84.9 34.7,106.1 55.9,127.3 77.1,106.1 98.3,84.9 119.5,63.6 140.7,42.4 162,63.6 140.7,84.9 
			162,106.1 183.2,84.9 204.4,63.6 		"/>
	</g>
</g>
</svg>
