<?xml version="1.0" encoding="utf-8"?>
<!-- Generator: Adobe Illustrator 19.0.0, SVG Export Plug-In . SVG Version: 6.00 Build 0)  -->
<svg version="1.1" id="Capa_1" xmlns="http://www.w3.org/2000/svg" xmlns:xlink="http://www.w3.org/1999/xlink" x="0px" y="0px"
	 viewBox="-463 265.6 31.4 31.4" style="enable-background:new -463 265.6 31.4 31.4;" xml:space="preserve">
<style type="text/css">
	.st0{fill:#E8E8E8;}
</style>
<g>
	<path class="st0" d="M-431.8,281.9c-0.6-1.4-2.2-2-3.6-1.4l-1.3,0.6l-3.4-7.6l1.3-0.6c1.4-0.6,2-2.2,1.4-3.6
		c-0.6-1.4-2.2-2-3.6-1.4l-1.3,0.6l-0.6-1.3c-0.6-1.4-2.2-2-3.6-1.4c-1.4,0.6-2,2.2-1.4,3.6l0.6,1.3l-7.6,3.4l-0.6-1.3
		c-0.6-1.4-2.2-2-3.6-1.4c-1.4,0.6-2,2.2-1.4,3.6l0.6,1.3l-1.3,0.6c-1.4,0.6-2,2.2-1.4,3.6c0.6,1.4,2.2,2,3.6,1.4l1.3-0.6l3.4,7.6
		l-1.3,0.6c-1.4,0.6-2,2.2-1.4,3.6c0.6,1.4,2.2,2,3.6,1.4l1.3-0.6l0.6,1.3c0.6,1.4,2.2,2,3.6,1.4c1.4-0.6,2-2.2,1.4-3.6l-0.6-1.3
		l7.6-3.4l0.6,1.3c0.6,1.4,2.2,2,3.6,1.4c1.4-0.6,2-2.2,1.4-3.6l-0.6-1.3l1.3-0.6C-431.8,284.9-431.2,283.3-431.8,281.9z
		 M-449.4,286.8l-3.4-7.6l7.6-3.4l3.4,7.6L-449.4,286.8z"/>
</g>
</svg>
