<?xml version="1.0" encoding="utf-8"?>
<!-- Generator: Adobe Illustrator 19.0.0, SVG Export Plug-In . SVG Version: 6.00 Build 0)  -->
<svg version="1.1" id="Capa_1" xmlns="http://www.w3.org/2000/svg" xmlns:xlink="http://www.w3.org/1999/xlink" x="0px" y="0px"
	 viewBox="-223 25 512 512" style="enable-background:new -223 25 512 512;" xml:space="preserve">
<style type="text/css">
	.st0{fill:#E8E8E8;}
</style>
<g>
	<path class="st0" d="M272.4,235.8c6.6,9.8,13.8,19.5,16.6,30.8c0,1.2,0,2.5,0,3.7c-1.8,13.9-13.4,23.3-28.4,19.1
		c-8.3-2.3-15-12.1-21-20.4c-4.7-6.5-8.8-13-12.9-18.5c-1.2-1.6-3.3-5.6-4.3-3.7c0,2.6,0,25.1,0,40.5c0.1,0.6,0.1,1.2,0.1,1.7v109.5
		c0,8.2-6.6,14.8-14.8,14.8h-6.2c-8.2,0-14.8-6.6-14.8-14.8l0-95.8c0-0.2,0-0.4,0-0.6v-0.8h-0.1c-0.6-2.3-2.7-4.1-5.3-4.1h-1v-7.3
		v-7v-99H43.2c4.3-16.3,12.9-28.2,22.5-37.7c14.4-14.1,31.8-20.3,57.4-22.8c6.8,0,13.6,0,20.4,0c46.4,2.4,71.6,24.5,91.3,54.9
		C247.1,197.5,259.7,216.8,272.4,235.8z M152.5,438.5h6.2c8.2,0,14.8-6.6,14.8-14.8v-62.1h-35.8v62.1
		C137.7,431.8,144.3,438.5,152.5,438.5z M-107.3,191h280.6v92.1h-280.6V191z M-25.9,234c-0.4,4.7,0.9,9.3,3.6,13.4
		c2.8,4.3,6.9,8.1,12.2,11.4c5.3,3.3,11.8,6,19.1,7.9c7.3,1.9,15.4,2.9,24,2.9c8.6,0,16.7-1,24-2.9c7.3-1.9,13.8-4.6,19.2-7.9
		c5.3-3.3,9.4-7.1,12.2-11.4c2.7-4.2,4-8.7,3.6-13.4c-0.4-4.7-2.4-9-5.6-12.9c-3.2-3.9-7.7-7.3-13-10.3c-5.3-2.8-11.5-5.1-18.3-6.7
		c-6.8-1.6-14.2-2.5-22-2.5c-7.8,0-15.2,0.9-21.9,2.5c-6.8,1.6-13,3.9-18.3,6.7c-5.3,2.9-9.8,6.3-13,10.3
		C-23.5,225-25.5,229.4-25.9,234z M173.3,290h-280.6v12.1h280.6V290z M-107.3,337.1h280.6V325h-280.6V337.1z M-107.3,319.6h280.6
		v-12.1h-280.6V319.6z M-135.5,413.4c8.2,0,14.8-6.6,14.8-14.8l0-95.8c0-0.2,0-0.4,0-0.6v-0.8h0.1c0.6-2.3,2.7-4.1,5.3-4.1h1v-7.3
		v-7v-99h137c-4.3-16.3-12.9-28.2-22.5-37.7c-14.4-14.1-31.8-20.3-57.4-22.8c-6.8,0-13.6,0-20.4,0c-46.3,2.4-71.7,24.5-91.3,54.9
		c-12.3,19.1-25,38.4-37.6,57.4c-6.6,9.8-13.8,19.5-16.7,30.8c0,1.2,0,2.5,0,3.7c1.8,13.9,13.4,23.3,28.4,19.1
		c8.3-2.3,15-12.1,21-20.4c4.8-6.5,8.8-13,12.9-18.5c1.2-1.6,3.3-5.6,4.3-3.7c0,2.6,0,25.1,0,40.5c-0.1,0.6-0.1,1.1-0.1,1.7v109.5
		c0,8.2,6.6,14.8,14.8,14.8H-135.5L-135.5,413.4z M30.5,251.1l0-16.5c-1.8-0.2-3.6-0.4-5.2-0.7c-1.6-0.3-3.1-0.6-4.5-0.9
		c-1.4-0.3-2.6-0.7-3.7-1.1c-1.1-0.4-2.1-0.8-3-1.3c-0.9-0.5-1.6-1-2.3-1.5c-0.6-0.6-1.2-1.1-1.6-1.8c-0.4-0.7-0.7-1.3-0.9-2.1
		c-0.2-0.7-0.3-1.5-0.2-2.3c0-0.7,0.2-1.4,0.4-2.1c0.3-0.7,0.6-1.3,1.1-2c0.5-0.6,1.1-1.3,1.8-1.9c0.7-0.6,1.5-1.2,2.5-1.8
		c0.9-0.6,2-1.1,3.1-1.5c1.1-0.4,2.3-0.8,3.6-1.1c1.3-0.3,2.7-0.5,4.2-0.6c1.5-0.1,3-0.2,4.7-0.3v-3.7h4.7l0,3.6
		c1.6,0.1,3.2,0.2,4.6,0.4c1.5,0.2,2.8,0.4,4.1,0.7c1.3,0.3,2.5,0.6,3.6,1c1.1,0.4,2.1,0.8,3,1.3c0.9,0.5,1.7,1,2.4,1.6
		c0.7,0.6,1.3,1.2,1.8,1.8c0.5,0.6,0.9,1.3,1.1,2c0.3,0.7,0.5,1.5,0.6,2.3h-8.9c-0.1-0.4-0.2-0.7-0.3-1.1c-0.1-0.3-0.3-0.6-0.4-0.9
		c-0.2-0.3-0.4-0.6-0.6-0.9c-0.3-0.3-0.5-0.6-0.8-0.8c-0.5-0.5-1.2-0.9-1.8-1.2c-0.7-0.4-1.5-0.7-2.3-0.9c-0.8-0.3-1.8-0.4-2.8-0.6
		c-1-0.1-2-0.2-3.2-0.2l0,13.9c2,0.3,3.8,0.6,5.5,0.9c1.6,0.3,3.1,0.6,4.5,0.9c1.3,0.3,2.5,0.6,3.6,0.9c1,0.3,1.9,0.6,2.6,0.8
		c1.2,0.5,2.2,1,3.1,1.6c0.9,0.6,1.6,1.2,2.2,1.9c0.6,0.7,1.1,1.4,1.4,2.2c0.3,0.8,0.5,1.7,0.5,2.6c0,1.3-0.1,2.6-0.5,3.7
		c-0.3,1.2-0.9,2.2-1.6,3.2c-0.8,1-1.7,1.8-2.8,2.6c-1.1,0.8-2.4,1.4-3.9,2c-0.8,0.3-1.8,0.6-2.8,0.9c-1,0.3-2.2,0.5-3.3,0.8
		c-1.2,0.2-2.5,0.4-3.9,0.5c-1.4,0.2-2.9,0.3-4.5,0.4l0,6.2h-5.1l0-6.2c-2.6-0.1-4.9-0.3-7-0.6c-2.1-0.3-4.1-0.7-5.8-1.3
		c-1.7-0.5-3.3-1.2-4.5-1.9c-1.3-0.7-2.4-1.6-3.3-2.6c-0.5-0.5-0.9-1.1-1.2-1.7c-0.4-0.6-0.7-1.3-0.9-1.9c-0.2-0.7-0.4-1.4-0.5-2.2
		c-0.1-0.8-0.1-1.6-0.1-2.5h9.1c0,0.7,0.1,1.3,0.2,1.9c0.1,0.6,0.3,1.1,0.5,1.7c0.2,0.5,0.4,1,0.6,1.4c0.3,0.4,0.5,0.8,0.8,1.1
		c0.5,0.6,1.2,1.1,2,1.6c0.8,0.5,1.7,0.8,2.7,1.2c1,0.3,2.2,0.6,3.4,0.8C27.7,250.9,29.1,251,30.5,251.1z M35.5,235.4l0.1,15.9
		c1.5,0,2.9-0.2,4.1-0.3c1.3-0.2,2.4-0.5,3.4-0.8c1-0.3,1.9-0.7,2.7-1.2c0.8-0.5,1.5-1,2.1-1.6c0.3-0.3,0.5-0.6,0.8-0.9
		c0.2-0.3,0.4-0.7,0.5-1c0.2-0.3,0.2-0.7,0.3-1.1c0-0.4,0.1-0.8,0.1-1.2c0-0.6-0.1-1.2-0.4-1.8c-0.2-0.5-0.5-1-0.9-1.5
		c-0.4-0.5-0.9-0.9-1.5-1.3c-0.6-0.4-1.3-0.8-2.1-1.1c-0.5-0.2-1-0.4-1.6-0.6c-0.6-0.2-1.3-0.3-2.1-0.5c-0.7-0.2-1.6-0.3-2.5-0.5
		C37.5,235.8,36.6,235.5,35.5,235.4z M30.6,229.3l0-13.4c-1.1,0-2.1,0.1-3.1,0.2c-0.9,0.1-1.8,0.2-2.6,0.4c-0.8,0.2-1.5,0.4-2.1,0.7
		c-0.6,0.3-1.2,0.6-1.6,0.9c-0.5,0.3-0.9,0.7-1.3,1.1c-0.3,0.4-0.7,0.7-0.9,1.1c-0.2,0.4-0.4,0.8-0.5,1.1c-0.1,0.4-0.2,0.8-0.2,1.2
		c0,0.5,0,0.9,0.2,1.3c0.1,0.4,0.3,0.8,0.6,1.2c0.3,0.4,0.6,0.7,1,1c0.4,0.3,0.9,0.6,1.4,0.9c0.6,0.3,1.2,0.5,1.8,0.8
		c0.7,0.3,1.3,0.5,2.1,0.6c0.8,0.2,1.6,0.4,2.4,0.5C28.7,229.1,29.7,229.2,30.6,229.3z M54.4,390.3h6.2c8.2,0,14.8-6.6,14.8-14.8
		v-13.9H39.6v13.9C39.6,383.7,46.3,390.3,54.4,390.3z M-107.5,423.6c0,8.2,6.6,14.8,14.8,14.8h6.2c8.2,0,14.8-6.6,14.8-14.8v-62.1
		h-35.8L-107.5,423.6L-107.5,423.6L-107.5,423.6z M173.3,342.5h-280.6v12.1h280.6V342.5z M-43.6,426.9h6.2c8.2,0,15-6.6,15-14.8
		v-50.5h-35.9l-0.1,50.5C-58.5,420.3-51.8,426.9-43.6,426.9z M5.4,390.3h6.2c8.2,0,14.8-6.6,14.8-14.8v-13.9H-9.4v13.9
		C-9.4,383.7-2.8,390.3,5.4,390.3z M88.5,412.1c0,8.2,6.8,14.8,15,14.8h6.2c8.2,0,14.8-6.6,14.8-14.8l-0.1-50.5H88.5V412.1z"/>
</g>
</svg>
